:SAMPLES-PER-SECOND 30
:FULLY-SPECIFIED
:DEGREES
719
root  -37.1334 38.893 -4.57768 31.424 80.0348 36.5705
RightUpLeg  -3.90598 2.2209 -11.787
RightLeg  62.46 2.48153 4.64792
RightFoot  1.07771 -1.08536 10.0327
RightToes  -4.65663e-010 0 -3.6325e-017
Spine  8.55592 1.28045 -5.98499
Spine1  3.62177 1.65537 -6.40266
HEad  -16.4284 -0.410818 -0.962879
LeftShoulder1  -0.594504 5.01221 -33.2445
LeftArm  -1.87051 5.25887 -38.4513
LeftForeArm  32.0394 -9.10036 -8.90997
LeftHand  -0.0981433 8.4785 -1.80713
RightShoulder  -1.02888 -6.31158 30.0786
RightArm  26.793 -6.99265 47.4358
RightForeArm  18.1465 12.3548 8.65045
RightHand  -0.121484 3.92003 -1.81288
LeftUpLeg  -11.5405 5.9715 -9.02174
LeftLeg  23.2968 4.51402 2.44959
LeftFoot  -5.81064 -0.257254 6.04348
LeftToes  8.74931e-010 -1.05764e-010 1.2659e-011
720
root  -36.1218 39.1019 -4.6653 29.6228 80.4666 35.233
RightUpLeg  -7.98312 1.93021 -11.3024
RightLeg  63.9616 1.95811 3.80942
RightFoot  1.05097 -0.906255 8.39607
RightToes  -4.65663e-010 0 -3.6325e-017
Spine  8.86062 0.716899 -7.20871
Spine1  3.63691 0.505844 -4.29453
HEad  -15.1622 1.96104 -0.534513
LeftShoulder1  -0.678509 5.20648 -33.6871
LeftArm  -0.828203 2.62613 -38.6215
LeftForeArm  31.0928 -9.84695 -8.97427
LeftHand  -0.063907 8.49035 -0.615041
RightShoulder  -0.9138 -6.05128 29.3009
RightArm  28.7705 -8.32974 46.483
RightForeArm  13.2917 15.7683 6.99817
RightHand  -0.0325325 4.01907 -0.663694
LeftUpLeg  -8.44453 6.14315 -8.58657
LeftLeg  21.718 4.25634 1.93466
LeftFoot  -6.93834 -0.188851 6.00329
LeftToes  8.74931e-010 -1.05764e-010 1.2659e-011
721
root  -35.1225 39.257 -4.72765 26.6836 80.8444 32.4458
RightUpLeg  -11.9021 2.07879 -10.2911
RightLeg  62.8838 1.74987 3.17555
RightFoot  0.0527838 -0.778079 7.78628
RightToes  -4.65663e-010 0 -3.6325e-017
Spine  8.7293 0.275437 -7.67738
Spine1  3.73003 -0.225273 -3.09224
HEad  -14.4495 2.09077 -0.0961687
LeftShoulder1  -0.63363 5.1204 -33.0409
LeftArm  -1.1634 0.325632 -39.7839
LeftForeArm  30.3248 -10.5237 -8.59843
LeftHand  -0.0371228 8.63831 0.333465
RightShoulder  -0.967038 -6.21308 29.1333
RightArm  29.7697 -8.87154 45.6523
RightForeArm  11.508 18.3538 5.66179
RightHand  0.136782 3.82428 1.43354
LeftUpLeg  -5.78539 6.30162 -7.87276
LeftLeg  20.3377 4.14833 1.34319
LeftFoot  -8.16354 -0.12184 6.1556
LeftToes  8.74931e-010 -1.05764e-010 1.2659e-011
722
root  -34.1518 39.3637 -4.78782 24.2343 80.9639 30.1017
RightUpLeg  -15.3318 2.3281 -9.42552
RightLeg  59.2185 1.92921 3.03264
RightFoot  -1.34075 -0.661295 7.44878
RightToes  -4.65663e-010 0 -3.6325e-017
Spine  8.38694 0.0326901 -8.15629
Spine1  4.17637 -0.678042 -1.96008
HEad  -13.8146 1.93393 0.131332
LeftShoulder1  -0.595645 5.03095 -32.8537
LeftArm  -0.470426 -2.63081 -40.5244
LeftForeArm  28.6889 -11.355 -8.41001
LeftHand  -0.0359584 8.86338 0.392291
RightShoulder  -0.997582 -6.30552 29.0551
RightArm  28.4545 -8.47621 45.4366
RightForeArm  12.1109 19.2335 5.13479
RightHand  0.0546029 3.39763 0.618988
LeftUpLeg  -3.3827 6.29052 -7.43427
LeftLeg  19.1555 4.50333 0.984111
LeftFoot  -9.19043 -0.0604677 6.15872
LeftToes  8.74931e-010 -1.05764e-010 1.2659e-011
723
root  -33.1633 39.3937 -4.84026 23.0728 81.2024 29.2529
RightUpLeg  -17.5581 2.34223 -8.6867
RightLeg  53.038 2.24067 2.82731
RightFoot  -2.7399 -0.621508 8.02114
RightToes  -4.65663e-010 0 -3.6325e-017
Spine  8.75626 -0.211075 -8.5823
Spine1  3.97337 -1.13174 -0.974673
HEad  -13.5298 2.32137 0.353273
LeftShoulder1  -0.582137 5.01077 -32.4805
LeftArm  0.600017 -4.94713 -41.3516
LeftForeArm  26.9617 -12.8498 -7.88481
LeftHand  -0.0367206 8.33051 0.328716
RightShoulder  -0.956316 -6.19637 28.9556
RightArm  26.8336 -8.11481 45.4765
RightForeArm  8.80091 18.6502 5.43133
RightHand  -0.156501 5.49621 -2.03606
LeftUpLeg  -0.897029 6.18697 -7.20826
LeftLeg  18.2976 4.57447 0.694198
LeftFoot  -10.5019 0.0182167 6.16998
LeftToes  8.74931e-010 -1.05764e-010 1.2659e-011
724
root  -32.1789 39.3761 -4.87478 23.6165 81.3764 30.1299
RightUpLeg  -18.7833 1.93688 -8.21847
RightLeg  44.6694 2.60892 2.45771
RightFoot  -3.77229 -0.620175 8.954
RightToes  -4.65663e-010 0 -3.6325e-017
Spine  9.13049 -0.434327 -9.02786
Spine1  3.79319 -1.46893 -0.180811
HEad  -13.564 2.52036 0.704422
LeftShoulder1  -0.53377 4.90314 -31.9924
LeftArm  2.6209 -6.92195 -42.097
LeftForeArm  24.1941 -14.9511 -7.11353
LeftHand  -0.0286398 8.25191 0.615118
RightShoulder  -0.946061 -6.15553 29.1006
RightArm  25.4748 -7.442 45.7554
RightForeArm  9.38451 17.9861 5.59408
RightHand  -0.131159 5.24798 -1.74332
LeftUpLeg  1.65983 6.3121 -7.1853
LeftLeg  17.2931 4.30053 0.272595
LeftFoot  -11.8367 0.0980934 6.25922
LeftToes  8.74931e-010 -1.05764e-010 1.2659e-011
725
root  -31.1617 39.3575 -4.9129 25.11 81.8101 31.7268
RightUpLeg  -19.046 0.683113 -7.70051
RightLeg  34.2857 3.16048 2.08594
RightFoot  -3.75798 -0.612092 8.83116
RightToes  -4.65663e-010 0 -3.6325e-017
Spine  9.18605 -0.696905 -8.87284
Spine1  3.85501 -1.67681 0.188926
HEad  -13.8697 2.2984 0.877067
LeftShoulder1  -0.463067 4.73218 -31.5636
LeftArm  4.87639 -9.00242 -42.8315
LeftForeArm  21.4628 -16.7051 -6.43961
LeftHand  -0.00882504 8.33671 1.35201
RightShoulder  -1.02348 -6.33022 29.6679
RightArm  24.6843 -6.61463 45.8034
RightForeArm  9.84117 17.0792 5.91116
RightHand  -0.139825 4.65791 -1.9028
LeftUpLeg  4.06641 6.3318 -7.16992
LeftLeg  16.2002 3.85862 -0.0828488
LeftFoot  -13.0125 0.16951 6.23402
LeftToes  8.74931e-010 -1.05764e-010 1.2659e-011
